<svg width="24" height="24" viewBox="0 0 24 24" fill="none" xmlns="http://www.w3.org/2000/svg">
<g clip-path="url(#clip0_33_17)">
<path d="M0.932995 12C0.919096 10.5379 1.19508 9.08751 1.74499 7.73266C2.2949 6.37782 3.10784 5.14538 4.13684 4.10655C5.16584 3.06772 6.3905 2.2431 7.74005 1.68034C9.08961 1.11757 10.5373 0.82782 11.9995 0.82782C13.4617 0.82782 14.9094 1.11757 16.2589 1.68034C17.6085 2.2431 18.8332 3.06772 19.8622 4.10655C20.8911 5.14538 21.7041 6.37782 22.254 7.73266C22.8039 9.08751 23.0799 10.5379 23.066 12C23.0799 13.4621 22.8039 14.9125 22.254 16.2674C21.7041 17.6222 20.8911 18.8547 19.8622 19.8935C18.8332 20.9323 17.6085 21.7569 16.2589 22.3197C14.9094 22.8825 13.4617 23.1722 11.9995 23.1722C10.5373 23.1722 9.08961 22.8825 7.74005 22.3197C6.3905 21.7569 5.16584 20.9323 4.13684 19.8935C3.10784 18.8547 2.2949 17.6222 1.74499 16.2674C1.19508 14.9125 0.919096 13.4621 0.932995 12Z" fill="black" stroke="black" stroke-width="1.86667"/>
<path d="M12.036 7.24001C12.311 6.93501 12.772 6.91801 13.066 7.20401L18 12L13.066 16.796C12.772 17.081 12.311 17.066 12.036 16.76C11.761 16.454 11.776 15.975 12.07 15.689L15.086 12.758H6.729C6.326 12.758 6 12.418 6 12C6 11.582 6.326 11.242 6.729 11.242H15.086L12.07 8.31101C11.776 8.02501 11.761 7.54601 12.036 7.24001Z" fill="white"/>
</g>
<defs>
<clipPath id="clip0_33_17">
<rect width="24" height="24" fill="white"/>
</clipPath>
</defs>
</svg>
