<svg xmlns="http://www.w3.org/2000/svg" xmlns:android="http://schemas.android.com/apk/res/android" width="25dp" height="24dp" viewportWidth="25" viewportHeight="24">
	<path d="M5.5,6L5.5,6A1,1 0,0 1,6.5 7L6.5,17A1,1 0,0 1,5.5 18L5.5,18A1,1 0,0 1,4.5 17L4.5,7A1,1 0,0 1,5.5 6z" fill="#ffffff"/>
	<path d="M9.5,6.75C9.5,6.336 9.836,6 10.25,6C10.664,6 11,6.336 11,6.75V17.25C11,17.664 10.664,18 10.25,18C9.836,18 9.5,17.664 9.5,17.25V6.75Z" fill="#ffffff"/>
	<path d="M14,6.75C14,6.336 14.336,6 14.75,6C15.164,6 15.5,6.336 15.5,6.75V17.25C15.5,17.664 15.164,18 14.75,18C14.336,18 14,17.664 14,17.25V6.75Z" fill="#ffffff"/>
	<path d="M19.5,6L19.5,6A1,1 0,0 1,20.5 7L20.5,17A1,1 0,0 1,19.5 18L19.5,18A1,1 0,0 1,18.5 17L18.5,7A1,1 0,0 1,19.5 6z" fill="#ffffff"/>
</svg>
