<svg width="13" height="22" viewBox="0 0 13 22" fill="none" xmlns="http://www.w3.org/2000/svg">
<path d="M6.433 21.4115L6.478 21.5005L6.523 21.4115C6.671 21.1155 6.893 20.8925 7.156 20.7045C8.303 19.9015 9.07 18.6075 9.346 17.1615H12.856H12.906V17.1115V1.75751V1.67651L12.834 1.71251C10.906 2.67651 9.638 4.79351 9.369 6.98351L8.835 11.2995L8.827 11.3645L8.891 11.3555L9.155 11.3175C9.425 11.3185 9.678 11.4445 9.865 11.6365C10.054 11.8295 10.171 12.0845 10.171 12.3375C10.171 12.8065 9.809 13.2095 9.331 13.3195L8.719 13.4635C7.664 11.4555 7.063 9.48951 7.063 7.56251C7.063 6.69051 7.129 5.81851 7.195 4.93951L7.196 4.92651C7.263 4.04351 7.33 3.15351 7.33 2.25351C7.33 1.43851 7.02 0.701507 6.516 0.120507L6.478 0.0765076L6.44 0.120507C5.937 0.701507 5.626 1.43851 5.626 2.25351C5.643 3.07751 5.701 3.89351 5.758 4.70351C5.764 4.77751 5.769 4.85151 5.774 4.92651C5.836 5.80951 5.893 6.68651 5.893 7.56251C5.893 9.48951 5.292 11.4555 4.237 13.4635L3.625 13.3195C3.147 13.2095 2.785 12.8065 2.785 12.3375C2.785 12.0845 2.902 11.8295 3.091 11.6365C3.278 11.4445 3.532 11.3185 3.801 11.3175L4.065 11.3555L4.129 11.3645L4.121 11.2995L3.587 6.98551C3.432 4.79151 2.048 2.67551 0.122003 1.71251L0.0500031 1.67651V1.75751V17.1115V17.1615H0.100003H3.61C3.887 18.6085 4.692 19.8635 5.799 20.7035L5.8 20.7045C6.063 20.8925 6.285 21.1155 6.433 21.4115ZM10.538 6.88151V6.88051C10.647 5.83251 11.101 4.88651 11.737 4.11051V11.7525H11.214C11.052 11.1905 10.641 10.7065 10.122 10.4005L10.538 6.88151ZM3.255 14.4475L3.258 14.4485L3.706 14.5515C3.601 15.0195 3.53 15.4885 3.525 15.9925H1.219V12.9215H1.742C1.947 13.6475 2.526 14.2175 3.255 14.4475ZM9.698 14.4485L9.701 14.4475C10.43 14.2175 11.009 13.6475 11.214 12.9215H11.737V15.9925H9.431C9.426 15.4885 9.355 15.0195 9.25 14.5515L9.698 14.4485ZM2.834 10.4005C2.315 10.7065 1.904 11.1905 1.742 11.7525H1.219V4.11051C1.851 4.88651 2.273 5.83151 2.418 6.88151L2.834 10.4005ZM6.478 11.3265C6.741 12.1705 7.129 12.9805 7.55 13.7565C7.124 13.8805 6.767 14.1625 6.478 14.4775C6.189 14.1625 5.832 13.8805 5.406 13.7565C5.827 12.9805 6.215 12.1705 6.478 11.3265ZM4.834 14.7985C5.42 14.8895 5.868 15.4025 5.892 15.9925H4.657C4.662 15.5735 4.731 15.1865 4.834 14.7985ZM8.122 14.7985C8.225 15.1865 8.294 15.5735 8.299 15.9925H7.064C7.088 15.4025 7.536 14.8895 8.122 14.7985ZM4.822 17.1615H5.893V19.2305C5.384 18.6255 5.007 17.9255 4.822 17.1615ZM7.063 17.1615H8.134C7.949 17.9255 7.572 18.6255 7.063 19.2305V17.1615Z" fill="white" stroke="white" stroke-width="0.1"/>
</svg>
