<svg width="25" height="25" viewBox="0 0 25 25" fill="none" xmlns="http://www.w3.org/2000/svg">
<path d="M6.25 1.82294H18.75C19.6479 1.82294 20.509 2.17961 21.1438 2.8145C21.7787 3.44939 22.1354 4.31049 22.1354 5.20835V19.7917C22.1354 20.6896 21.7787 21.5506 21.1438 22.1855C20.509 22.8204 19.6479 23.1771 18.75 23.1771H6.25C5.35213 23.1771 4.49103 22.8204 3.85614 22.1855C3.22125 21.5506 2.86458 20.6896 2.86458 19.7917V5.20835C2.86458 4.31049 3.22125 3.44939 3.85614 2.8145C4.49103 2.17961 5.35213 1.82294 6.25 1.82294Z" fill="white" stroke="white" stroke-width="2"/>
<path d="M6.25 18.75C6.25 18.4625 6.48333 18.2292 6.77083 18.2292H15.1042C15.3917 18.2292 15.625 18.4625 15.625 18.75V19.2709C15.625 19.5584 15.3917 19.7917 15.1042 19.7917H6.77083C6.48333 19.7917 6.25 19.5584 6.25 19.2709V18.75Z" fill="black"/>
<path d="M6.25 15.1041C6.25 14.8166 6.48333 14.5833 6.77083 14.5833H18.2292C18.5167 14.5833 18.75 14.8166 18.75 15.1041V15.625C18.75 15.9125 18.5167 16.1458 18.2292 16.1458H6.77083C6.48333 16.1458 6.25 15.9125 6.25 15.625V15.1041Z" fill="black"/>
<path d="M7.29167 5.20831H12.5C12.7763 5.20831 13.0412 5.31806 13.2366 5.51341C13.4319 5.70876 13.5417 5.97371 13.5417 6.24998V11.4583C13.5417 11.7346 13.4319 11.9995 13.2366 12.1949C13.0412 12.3902 12.7763 12.5 12.5 12.5H7.29167C7.0154 12.5 6.75045 12.3902 6.5551 12.1949C6.35975 11.9995 6.25 11.7346 6.25 11.4583V6.24998C6.25 5.97371 6.35975 5.70876 6.5551 5.51341C6.75045 5.31806 7.0154 5.20831 7.29167 5.20831Z" stroke="black" stroke-width="1.5"/>
</svg>
