<svg width="27" height="27" viewBox="0 0 27 27" fill="none" xmlns="http://www.w3.org/2000/svg">
<path d="M13 0.200195C13.9764 0.200195 14.9277 0.307827 15.8426 0.511898C16.2374 0.59995 16.438 1.02536 16.3174 1.41142C16.2019 1.78081 15.8221 2.01997 15.4432 1.94118C14.6866 1.78384 13.9029 1.7002 13.0996 1.7002C6.74852 1.70041 1.59961 6.84905 1.59961 13.2002C1.59971 19.5513 6.74858 24.7 13.0996 24.7002C19.4508 24.7002 24.5995 19.5514 24.5996 13.2002C24.5996 12.4653 24.5297 11.7468 24.3976 11.0504C24.3289 10.6886 24.5639 10.3319 24.9182 10.2313C25.2883 10.1262 25.6868 10.3295 25.7603 10.7072C25.9173 11.514 26 12.3474 26 13.2002C25.9999 20.3798 20.1796 26.2002 13 26.2002C5.82036 26.2002 9.89595e-05 20.3798 0 13.2002C0 6.02049 5.8203 0.200195 13 0.200195Z" fill="white"/>
<circle cx="23" cy="3.5" r="3.5" fill="#F53C4E"/>
<path d="M13.0996 4.5C15.364 4.5 17.2002 6.62665 17.2002 9.25C17.2002 11.8734 15.364 14 13.0996 14C10.8354 13.9998 9 11.8732 9 9.25C9 6.6268 10.8354 4.50024 13.0996 4.5ZM13.1904 6.2998C11.7049 6.2998 10.5002 7.69504 10.5 9.41602C10.5 11.1372 11.7048 12.5332 13.1904 12.5332C14.6759 12.5329 15.8799 11.137 15.8799 9.41602C15.8797 7.69521 14.6758 6.30007 13.1904 6.2998Z" fill="white"/>
<mask id="path-4-outside-1_15_92" maskUnits="userSpaceOnUse" x="2.54102" y="14.5" width="21" height="7" fill="black">
<rect fill="white" x="2.54102" y="14.5" width="21" height="7"/>
<path d="M13.25 15.5C17.5699 15.5 21.2629 17.3266 22.7715 19.9092C22.5463 20.0013 22.3387 20.1517 22.1709 20.3613L22.0059 20.5664C20.7648 18.2021 17.3149 16.5 13.25 16.5C8.97925 16.5 5.38558 18.3778 4.32129 20.9297L3.64062 20.334C3.60853 20.3059 3.57468 20.2807 3.54102 20.2559C4.91109 17.4912 8.73907 15.5 13.25 15.5Z"/>
</mask>
<path d="M13.25 15.5C17.5699 15.5 21.2629 17.3266 22.7715 19.9092C22.5463 20.0013 22.3387 20.1517 22.1709 20.3613L22.0059 20.5664C20.7648 18.2021 17.3149 16.5 13.25 16.5C8.97925 16.5 5.38558 18.3778 4.32129 20.9297L3.64062 20.334C3.60853 20.3059 3.57468 20.2807 3.54102 20.2559C4.91109 17.4912 8.73907 15.5 13.25 15.5Z" fill="white"/>
<path d="M22.7715 19.9092L22.8851 20.1868L23.2047 20.0561L23.0305 19.7579L22.7715 19.9092ZM22.1709 20.3613L22.4046 20.5494L22.4051 20.5488L22.1709 20.3613ZM22.0059 20.5664L21.7402 20.7058L21.9528 21.1108L22.2396 20.7545L22.0059 20.5664ZM4.32129 20.9297L4.12371 21.1554L4.43761 21.4302L4.59817 21.0452L4.32129 20.9297ZM3.64062 20.334L3.8382 20.1082L3.83818 20.1082L3.64062 20.334ZM3.54102 20.2559L3.27221 20.1226L3.16057 20.3479L3.36287 20.4972L3.54102 20.2559ZM13.25 15.5V15.8C17.5027 15.8 21.075 17.5996 22.5124 20.0605L22.7715 19.9092L23.0305 19.7579C21.4508 17.0535 17.637 15.2 13.25 15.2V15.5ZM22.7715 19.9092L22.6579 19.6315C22.386 19.7427 22.1367 19.9239 21.9367 20.1739L22.1709 20.3613L22.4051 20.5488C22.5406 20.3794 22.7065 20.2599 22.8851 20.1868L22.7715 19.9092ZM22.1709 20.3613L21.9372 20.1732L21.7721 20.3783L22.0059 20.5664L22.2396 20.7545L22.4046 20.5494L22.1709 20.3613ZM22.0059 20.5664L22.2715 20.427C20.9583 17.9253 17.3747 16.2 13.25 16.2V16.5V16.8C17.2551 16.8 20.5713 18.4789 21.7402 20.7058L22.0059 20.5664ZM13.25 16.5V16.2C11.0723 16.2 9.05928 16.6785 7.44827 17.49C5.84044 18.2998 4.61216 19.4529 4.04441 20.8142L4.32129 20.9297L4.59817 21.0452C5.09471 19.8546 6.19541 18.7928 7.71818 18.0258C9.23776 17.2604 11.157 16.8 13.25 16.8V16.5ZM4.32129 20.9297L4.51886 20.7039L3.8382 20.1082L3.64062 20.334L3.44305 20.5597L4.12371 21.1554L4.32129 20.9297ZM3.64062 20.334L3.83818 20.1082C3.7955 20.0709 3.75222 20.0389 3.71916 20.0145L3.54102 20.2559L3.36287 20.4972C3.39714 20.5225 3.42157 20.5409 3.44307 20.5598L3.64062 20.334ZM3.54102 20.2559L3.80982 20.3891C5.11131 17.7628 8.8061 15.8 13.25 15.8V15.5V15.2C8.67203 15.2 4.71086 17.2196 3.27221 20.1226L3.54102 20.2559Z" fill="white" mask="url(#path-4-outside-1_15_92)"/>
</svg>
