<svg xmlns="http://www.w3.org/2000/svg" xmlns:android="http://schemas.android.com/apk/res/android" width="24" height="24" viewportWidth="24" viewportHeight="24">
	<path d="M8,15.5C9.933,15.5 11.5,13.933 11.5,12C11.5,10.067 9.933,8.5 8,8.5C6.067,8.5 4.5,10.067 4.5,12C4.5,13.933 6.067,15.5 8,15.5ZM8,17C10.761,17 13,14.761 13,12C13,9.239 10.761,7 8,7C5.239,7 3,9.239 3,12C3,14.761 5.239,17 8,17Z" fill="#000000" fill-rule="evenOdd"/>
	<path d="M12,11.385H20.25C20.664,11.385 21,11.72 21,12.135C21,12.549 20.664,12.885 20.25,12.885H12V11.385Z" fill="#000000"/>
	<path d="M19,12.769V15.019C19,15.434 18.664,15.769 18.25,15.769C17.836,15.769 17.5,15.434 17.5,15.019V12.769H19Z" fill="#000000"/>
</svg>
