<?xml version="1.0" standalone="no"?>
<!DOCTYPE svg PUBLIC "-//W3C//DTD SVG 20010904//EN"
 "http://www.w3.org/TR/2001/REC-SVG-20010904/DTD/svg10.dtd">
<svg version="1.0" xmlns="http://www.w3.org/2000/svg"
 width="24" height="24" viewBox="0 0 24.000000 24.000000"
 preserveAspectRatio="xMidYMid meet">

<g transform="translate(0.000000,24.000000) scale(0.100000,-0.100000)"
fill="#000000" stroke="none">
<path d="M66 179 c-21 -17 -26 -18 -26 -5 0 9 -4 16 -10 16 -5 0 -10 -16 -10
-35 0 -33 2 -35 35 -35 35 0 51 20 18 20 -15 1 -14 4 6 20 31 27 57 25 87 -5
14 -14 27 -25 29 -25 13 0 2 24 -20 45 -30 31 -73 32 -109 4z"/>
<path d="M150 100 c0 -5 7 -10 17 -10 14 0 14 -2 -2 -20 -25 -27 -61 -25 -91
5 -14 14 -27 25 -29 25 -13 0 -2 -24 20 -45 30 -31 73 -32 109 -4 21 17 26 18
26 5 0 -9 5 -16 10 -16 6 0 10 16 10 35 0 33 -2 35 -35 35 -19 0 -35 -4 -35
-10z"/>
</g>
</svg>
