<svg width="24" height="29" viewBox="0 0 24 29" fill="none" xmlns="http://www.w3.org/2000/svg">
<path d="M23.7071 8.07106C24.0976 7.68054 24.0976 7.04737 23.7071 6.65685L17.3431 0.292885C16.9526 -0.0976395 16.3195 -0.0976395 15.9289 0.292885C15.5384 0.683409 15.5384 1.31657 15.9289 1.7071L21.5858 7.36395L15.9289 13.0208C15.5384 13.4113 15.5384 14.0445 15.9289 14.435C16.3195 14.8255 16.9526 14.8255 17.3431 14.435L23.7071 8.07106ZM5 7.36395V8.36395L23 8.36395V7.36395V6.36395L5 6.36395V7.36395Z" fill="white"/>
<circle cx="5" cy="7.36395" r="1" fill="white"/>
<path d="M0.292893 22.2711C-0.0976311 21.8805 -0.0976311 21.2474 0.292893 20.8569L6.65685 14.4929C7.04738 14.1024 7.68054 14.1024 8.07107 14.4929C8.46159 14.8834 8.46159 15.5166 8.07107 15.9071L2.41421 21.564L8.07107 27.2208C8.46159 27.6113 8.46159 28.2445 8.07107 28.635C7.68054 29.0256 7.04738 29.0256 6.65685 28.635L0.292893 22.2711ZM19 21.564V22.564L1 22.564V21.564V20.564L19 20.564V21.564Z" fill="white"/>
<circle cx="1" cy="1" r="1" transform="matrix(-1 0 0 1 20 20.564)" fill="white"/>
</svg>
