<svg width="25" height="25" viewBox="0 0 25 25" fill="none" xmlns="http://www.w3.org/2000/svg">
<g clip-path="url(#clip0_5_32)">
<path d="M7.29167 2.08331H13.5417C16.4875 2.08331 17.9615 2.08331 18.876 2.99894C19.7917 3.91352 19.7917 5.38748 19.7917 8.33331V15.625V20.8333C19.7917 21.9833 20.725 22.9166 21.875 22.9166H7.29167C4.34583 22.9166 2.87188 22.9166 1.95729 22.001C1.04167 21.0864 1.04167 19.6125 1.04167 16.6666V8.33331C1.04167 5.38748 1.04167 3.91352 1.95729 2.99894C2.87188 2.08331 4.34583 2.08331 7.29167 2.08331Z" stroke="white" stroke-width="1.5"/>
<path d="M19.7917 20.8334V13.5417H21.875C23.026 13.5417 23.9583 14.474 23.9583 15.625V20.8334C23.9583 21.9844 23.026 22.9167 21.875 22.9167C20.724 22.9167 19.7917 21.9844 19.7917 20.8334Z" stroke="white" stroke-width="1.5"/>
<path d="M5.20833 17.1875H15.625C15.7631 17.1875 15.8956 17.2424 15.9933 17.34C16.091 17.4377 16.1458 17.5702 16.1458 17.7083V18.2292C16.1458 18.3673 16.091 18.4998 15.9933 18.5975C15.8956 18.6951 15.7631 18.75 15.625 18.75H5.20833C5.0702 18.75 4.93772 18.6951 4.84005 18.5975C4.74237 18.4998 4.6875 18.3673 4.6875 18.2292V17.7083C4.6875 17.5702 4.74237 17.4377 4.84005 17.34C4.93772 17.2424 5.0702 17.1875 5.20833 17.1875Z" fill="white"/>
<path d="M14.5833 6.25H6.25C5.97373 6.25 5.70878 6.35975 5.51343 6.5551C5.31808 6.75045 5.20833 7.0154 5.20833 7.29167V12.5C5.20833 12.7763 5.31808 13.0412 5.51343 13.2366C5.70878 13.4319 5.97373 13.5417 6.25 13.5417H14.5833C14.8596 13.5417 15.1246 13.4319 15.3199 13.2366C15.5153 13.0412 15.625 12.7763 15.625 12.5V7.29167C15.625 7.0154 15.5153 6.75045 15.3199 6.5551C15.1246 6.35975 14.8596 6.25 14.5833 6.25Z" stroke="white" stroke-width="1.5"/>
</g>
<defs>
<clipPath id="clip0_5_32">
<rect width="25" height="25" fill="white"/>
</clipPath>
</defs>
</svg>
