<svg width="33" height="33" viewBox="0 0 33 33" fill="none" xmlns="http://www.w3.org/2000/svg">
<path d="M16.75 0.5C25.7246 0.5 33 7.77537 33 16.75C33 25.7246 25.7246 33 16.75 33C7.77537 33 0.5 25.7246 0.5 16.75C0.5 7.77537 7.77537 0.5 16.75 0.5ZM17 2.5C8.99187 2.5 2.5 8.99187 2.5 17C2.5 25.0081 8.99187 31.5 17 31.5C25.0081 31.5 31.5 25.0081 31.5 17C31.5 8.99187 25.0081 2.5 17 2.5Z" fill="white"/>
<path d="M0.5 16.25C0.5 7.27537 7.77537 0 16.75 0C25.7246 0 33 7.27537 33 16.25C33 25.2246 25.7246 32.5 16.75 32.5C7.77537 32.5 0.5 25.2246 0.5 16.25ZM2.5 16C2.5 24.0081 8.99187 30.5 17 30.5C25.0081 30.5 31.5 24.0081 31.5 16C31.5 7.99187 25.0081 1.5 17 1.5C8.99187 1.5 2.5 7.99187 2.5 16Z" fill="white"/>
<line x1="16.75" y1="9.75" x2="16.75" y2="23.75" stroke="white" stroke-width="1.5"/>
<line x1="24" y1="16.75" x2="10" y2="16.75" stroke="white" stroke-width="1.5"/>
<path d="M16.75 0.5C7.77537 0.5 0.5 7.77537 0.5 16.75C0.5 25.7246 7.77537 33 16.75 33C25.7246 33 33 25.7246 33 16.75C33 7.77537 25.7246 0.5 16.75 0.5ZM16.5 2.5C24.5081 2.5 31 8.99187 31 17C31 25.0081 24.5081 31.5 16.5 31.5C8.49187 31.5 2 25.0081 2 17C2 8.99187 8.49187 2.5 16.5 2.5Z" fill="white"/>
<path d="M32.5 16.75C32.5 7.77537 25.2246 0.5 16.25 0.5C7.27537 0.5 0 7.77537 0 16.75C0 25.7246 7.27537 33 16.25 33C25.2246 33 32.5 25.7246 32.5 16.75ZM30.5 16.5C30.5 24.5081 24.0081 31 16 31C7.99187 31 1.5 24.5081 1.5 16.5C1.5 8.49187 7.99187 2 16 2C24.0081 2 30.5 8.49187 30.5 16.5Z" fill="white"/>
<line y1="-0.75" x2="14" y2="-0.75" transform="matrix(0 1 1 0 17.5 9.75)" stroke="white" stroke-width="1.5"/>
<line y1="-0.75" x2="14" y2="-0.75" transform="matrix(1 0 0 -1 9.5 16)" stroke="white" stroke-width="1.5"/>
</svg>
