<svg width="24" height="24" viewBox="0 0 24 24" fill="none" xmlns="http://www.w3.org/2000/svg">
<path d="M17 0C20.866 2.57702e-07 24 3.13401 24 7V17C24 20.866 20.866 24 17 24H7C3.13401 24 0 20.866 0 17V7C2.57711e-07 3.13401 3.13401 0 7 0H17ZM7 2C4.23858 2 2 4.23858 2 7V17C2 19.7614 4.23858 22 7 22H17C19.7614 22 22 19.7614 22 17V7C22 4.23858 19.7614 2 17 2H7Z" fill="white"/>
<path d="M7.14661 12.8338L14.1746 4.86874C14.2467 4.78705 14.3789 4.86317 14.3445 4.96653L12.5439 10.3684C12.5223 10.4331 12.5705 10.5 12.6387 10.5H16.7784C16.8645 10.5 16.9104 10.6016 16.8534 10.6662L9.89957 18.5472C9.82476 18.6319 9.68879 18.5469 9.73228 18.4425L11.9423 13.1385C11.9698 13.0726 11.9214 13 11.85 13H7.2216C7.13549 13 7.08964 12.8984 7.14661 12.8338Z" fill="white" stroke="white"/>
</svg>
